<svg width="44" height="41" viewBox="0 0 44 41" fill="none" xmlns="http://www.w3.org/2000/svg">
<path d="M21.9859 38.7382C11.4643 38.7382 2.91211 30.6579 2.91211 20.7168C2.91211 10.7757 11.4643 2.69543 21.9859 2.69543C32.5076 2.69543 41.0598 10.7757 41.0598 20.7168C41.0598 30.6579 32.5076 38.7382 21.9859 38.7382ZM21.9859 5.21004C12.937 5.21004 5.57358 12.1671 5.57358 20.7168C5.57358 29.2665 12.937 36.2236 21.9859 36.2236C31.0349 36.2236 38.3983 29.2665 38.3983 20.7168C38.3983 12.1671 31.0349 5.21004 21.9859 5.21004Z" fill="#00111A"/>
<path d="M16.9645 26.7184C16.6274 26.7184 16.2902 26.601 16.0241 26.3496C15.5095 25.8634 15.5095 25.0587 16.0241 24.5726L26.0667 15.0841C26.5812 14.5979 27.4329 14.5979 27.9475 15.0841C28.462 15.5703 28.462 16.3749 27.9475 16.8611L17.9049 26.3496C17.6565 26.601 17.3016 26.7184 16.9645 26.7184Z" fill="#00111A"/>
<path d="M27.0071 26.7184C26.67 26.7184 26.3328 26.601 26.0667 26.3496L16.0241 16.8611C15.5095 16.3749 15.5095 15.5703 16.0241 15.0841C16.5386 14.5979 17.3903 14.5979 17.9049 15.0841L27.9475 24.5726C28.462 25.0587 28.462 25.8634 27.9475 26.3496C27.6813 26.601 27.3442 26.7184 27.0071 26.7184Z" fill="#00111A"/>
</svg>
