<svg width="44" height="41" viewBox="0 0 44 41" fill="none" xmlns="http://www.w3.org/2000/svg">
<g id="vuesax/outline/close-circle">
<g id="close-circle">
<path id="Vector" d="M21.983 38.7382C11.4614 38.7382 2.90918 30.6579 2.90918 20.7168C2.90918 10.7757 11.4614 2.69543 21.983 2.69543C32.5047 2.69543 41.0569 10.7757 41.0569 20.7168C41.0569 30.6579 32.5047 38.7382 21.983 38.7382ZM21.983 5.21004C12.934 5.21004 5.57065 12.1671 5.57065 20.7168C5.57065 29.2665 12.934 36.2236 21.983 36.2236C31.032 36.2236 38.3954 29.2665 38.3954 20.7168C38.3954 12.1671 31.032 5.21004 21.983 5.21004Z" fill="white"/>
<path id="Vector_2" d="M16.9611 26.7182C16.6239 26.7182 16.2868 26.6009 16.0207 26.3494C15.5061 25.8633 15.5061 25.0586 16.0207 24.5724L26.0633 15.084C26.5778 14.5978 27.4295 14.5978 27.944 15.084C28.4586 15.5701 28.4586 16.3748 27.944 16.861L17.9014 26.3494C17.653 26.6009 17.2982 26.7182 16.9611 26.7182Z" fill="white"/>
<path id="Vector_3" d="M27.0037 26.7182C26.6665 26.7182 26.3294 26.6009 26.0633 26.3494L16.0207 16.861C15.5061 16.3748 15.5061 15.5701 16.0207 15.084C16.5352 14.5978 17.3869 14.5978 17.9014 15.084L27.944 24.5724C28.4586 25.0586 28.4586 25.8633 27.944 26.3494C27.6779 26.6009 27.3408 26.7182 27.0037 26.7182Z" fill="white"/>
</g>
</g>
</svg>
