<svg width="42" height="42" viewBox="0 0 42 42" fill="none" xmlns="http://www.w3.org/2000/svg">
<g clip-path="url(#clip0_187_1255)">
<path d="M12.7302 34.074H9.5114C4.58277 33.7219 2.37 29.9333 2.37 26.5637C2.37 23.1941 4.58279 19.3887 9.4276 19.0534C10.1149 18.9863 10.7184 19.5228 10.7687 20.2269C10.819 20.9142 10.2994 21.5177 9.5953 21.568C6.34308 21.8027 4.88461 24.2502 4.88461 26.5804C4.88461 28.9107 6.34308 31.3582 9.5953 31.5929H12.7302C13.4175 31.5929 13.9875 32.1629 13.9875 32.8502C13.9875 33.5375 13.4175 34.074 12.7302 34.074Z" fill="#0071C5"/>
<path d="M28.1692 34.074C28.1357 34.074 28.1189 34.074 28.0854 34.074C27.3981 34.074 26.7611 33.504 26.7611 32.8167C26.7611 32.0958 27.2975 31.5594 28.0016 31.5594C30.0636 31.5594 31.9076 30.8385 33.3493 29.5477C35.9645 27.2678 36.1322 23.982 35.4281 21.6686C34.724 19.3719 32.7626 16.74 29.3427 16.3209C28.7895 16.2538 28.3536 15.8347 28.253 15.2815C27.5824 11.2581 25.4199 8.47527 22.1342 7.46943C18.7478 6.41329 14.7914 7.45266 12.3271 10.0343C9.92986 12.5322 9.37666 16.0359 10.7681 19.8916C11.0028 20.5454 10.6676 21.2662 10.0138 21.5009C9.35998 21.7356 8.63909 21.4004 8.40439 20.7466C6.71122 16.0191 7.48238 11.4928 10.5167 8.30763C13.618 5.0554 18.597 3.76455 22.8718 5.07215C26.7946 6.27916 29.5606 9.51463 30.5664 14.0074C33.9863 14.7786 36.7356 17.377 37.8253 20.9645C39.0156 24.8705 37.9427 28.8939 35.009 31.4421C33.1481 33.1185 30.7173 34.074 28.1692 34.074Z" fill="#0071C5"/>
<path d="M20.3405 39.0027C16.9709 39.0027 13.8193 37.2089 12.0926 34.3087C11.9082 34.0237 11.7238 33.6885 11.5729 33.3197C11.003 32.1294 10.7012 30.7715 10.7012 29.3633C10.7012 24.0491 15.0263 19.724 20.3405 19.724C25.6547 19.724 29.9799 24.0491 29.9799 29.3633C29.9799 30.7883 29.6781 32.1294 29.0746 33.37C28.9405 33.6885 28.7561 34.0238 28.555 34.3423C26.8618 37.2089 23.7101 39.0027 20.3405 39.0027ZM20.3405 22.2386C16.4177 22.2386 13.2158 25.4405 13.2158 29.3633C13.2158 30.4027 13.4337 31.375 13.8528 32.2635C13.9869 32.5485 14.1043 32.7832 14.2384 33.0011C15.5124 35.1637 17.8427 36.4881 20.3237 36.4881C22.8048 36.4881 25.135 35.1637 26.3923 33.0347C26.5432 32.7832 26.6774 32.5485 26.778 32.3138C27.2306 31.3918 27.4485 30.4195 27.4485 29.3801C27.4652 25.4405 24.2633 22.2386 20.3405 22.2386Z" fill="#0071C5"/>
<path d="M19.3848 32.2801C19.0663 32.2801 18.7479 32.1628 18.4964 31.9113L16.8367 30.2517C16.3505 29.7655 16.3505 28.9608 16.8367 28.4747C17.3228 27.9885 18.1275 27.9885 18.6137 28.4747L19.4184 29.2793L22.1006 26.7983C22.6203 26.3289 23.4082 26.3624 23.8776 26.8653C24.347 27.3682 24.3135 28.1729 23.8106 28.6423L20.2398 31.9448C19.9884 32.1628 19.6866 32.2801 19.3848 32.2801Z" fill="#0071C5"/>
</g>
<defs>
<clipPath id="clip0_187_1255">
<rect width="41.1189" height="40.9082" fill="white" transform="translate(0.282837 0.623901)"/>
</clipPath>
</defs>
</svg>
