<svg width="96" height="96" viewBox="0 0 96 96" fill="none" xmlns="http://www.w3.org/2000/svg">
<path d="M22 4C18.6863 4 16 6.68629 16 10V86C16 89.3137 18.6863 92 22 92H74C77.3137 92 80 89.3137 80 86V28L56 4H22Z" fill="#20A464"/>
<path d="M22 92C18.6863 92 16 89.3137 16 86V85C16 88.3137 18.6863 91 22 91H74C77.3137 91 80 88.3137 80 85V86C80 89.3137 77.3137 92 74 92H22Z" fill="#149456"/>
<path d="M22 4C18.6863 4 16 6.68629 16 10V11C16 7.68629 18.6863 5 22 5H57L56 4H22Z" fill="#38AE74"/>
<path d="M80 48.5V28L76.5 24.5H59.6213C58.285 24.5 57.6157 26.1157 58.5607 27.0607L80 48.5Z" fill="url(#paint0_linear_3_194)"/>
<path d="M56 4L80 28H62C58.6863 28 56 25.3137 56 22V4Z" fill="#8ED1B1"/>
<path fill-rule="evenodd" clip-rule="evenodd" d="M64 47V76H32V47H64ZM46 51H36V56H46V51ZM50 56V51H60V56H50ZM46 59H36V64H46V59ZM50 64V59H60V64H50ZM46 67H36V72H46V67ZM50 72V67H60V72H50Z" fill="white"/>
<defs>
<linearGradient id="paint0_linear_3_194" x1="69.0592" y1="48.5" x2="69.0592" y2="24" gradientUnits="userSpaceOnUse">
<stop stop-color="#20A464"/>
<stop offset="1" stop-color="#207E55"/>
</linearGradient>
</defs>
</svg>
