<svg width="56" height="56" viewBox="0 0 56 56" fill="none" xmlns="http://www.w3.org/2000/svg">
<rect width="56" height="56" rx="7.81208" fill="#E2F6FF"/>
<path d="M18.248 13.333C17.0054 13.333 15.998 14.2284 15.998 15.333V40.6663C15.998 41.7709 17.0054 42.6663 18.248 42.6663H37.748C38.9907 42.6663 39.998 41.7709 39.998 40.6663V21.333L30.998 13.333H18.248Z" fill="#0071C5"/>
<path d="M18.248 42.6668C17.0054 42.6668 15.998 41.7714 15.998 40.6668V40.3335C15.998 41.4381 17.0054 42.3335 18.248 42.3335H37.748C38.9907 42.3335 39.998 41.4381 39.998 40.3335V40.6668C39.998 41.7714 38.9907 42.6668 37.748 42.6668H18.248Z" fill="#004D87"/>
<path d="M18.248 13.333C17.0054 13.333 15.998 14.2284 15.998 15.333V15.6663C15.998 14.5618 17.0054 13.6663 18.248 13.6663H31.373L30.998 13.333H18.248Z" fill="#0071C5"/>
<path d="M39.9986 28.167V21.3337L38.6861 20.167H32.3566C31.8555 20.167 31.6045 20.7056 31.9588 21.0205L39.9986 28.167Z" fill="url(#paint0_linear_219_8295)"/>
<path d="M31 13.333L40 21.333H33.25C32.0074 21.333 31 20.4376 31 19.333V13.333Z" fill="#1892EE"/>
<path d="M34 28H22V29.3333H34V28Z" fill="white"/>
<path d="M34 30.6667H22V32H34V30.6667Z" fill="white"/>
<path d="M22 33.3333H34V34.6667H22V33.3333Z" fill="white"/>
<path d="M31 36H22V37.3333H31V36Z" fill="white"/>
<defs>
<linearGradient id="paint0_linear_219_8295" x1="35.4986" y1="28.167" x2="35.4986" y2="20.0003" gradientUnits="userSpaceOnUse">
<stop stop-color="#0365AE"/>
<stop offset="1" stop-color="#004D87"/>
</linearGradient>
</defs>
</svg>
