<svg width="96" height="96" viewBox="0 0 96 96" fill="none" xmlns="http://www.w3.org/2000/svg">
<path d="M22 4C18.6863 4 16 6.68629 16 10V86C16 89.3137 18.6863 92 22 92H74C77.3137 92 80 89.3137 80 86V28L56 4H22Z" fill="#6B3FB9"/>
<path d="M22 92C18.6863 92 16 89.3137 16 86V85C16 88.3137 18.6863 91 22 91H74C77.3137 91 80 88.3137 80 85V86C80 89.3137 77.3137 92 74 92H22Z" fill="#6439B5"/>
<path d="M22 4C18.6863 4 16 6.68629 16 10V11C16 7.68629 18.6863 5 22 5H57L56 4H22Z" fill="#815BC3"/>
<path d="M80 48.5V28L76.5 24.5H59.6213C58.2849 24.5 57.6157 26.1157 58.5606 27.0607L80 48.5Z" fill="url(#paint0_linear_3_195)"/>
<path d="M56 4L80 28H62C58.6863 28 56 25.3137 56 22V4Z" fill="#B7A2DD"/>
<path d="M35 53C36.6569 53 38 51.6569 38 50C38 48.3431 36.6569 47 35 47C33.3431 47 32 48.3431 32 50C32 51.6569 33.3431 53 35 53Z" fill="white"/>
<path d="M65 48H43V52H65V48Z" fill="white"/>
<path d="M65 58H43V62H65V58Z" fill="white"/>
<path d="M43 68H65V72H43V68Z" fill="white"/>
<path d="M38 60C38 61.6569 36.6569 63 35 63C33.3431 63 32 61.6569 32 60C32 58.3431 33.3431 57 35 57C36.6569 57 38 58.3431 38 60Z" fill="white"/>
<path d="M35 73C36.6569 73 38 71.6569 38 70C38 68.3431 36.6569 67 35 67C33.3431 67 32 68.3431 32 70C32 71.6569 33.3431 73 35 73Z" fill="white"/>
<defs>
<linearGradient id="paint0_linear_3_195" x1="69.0591" y1="48.5" x2="69.0591" y2="24" gradientUnits="userSpaceOnUse">
<stop stop-color="#6B3FB9"/>
<stop offset="1" stop-color="#5B3DA3"/>
</linearGradient>
</defs>
</svg>
