<svg width="24" height="24" viewBox="0 0 24 24" fill="none" xmlns="http://www.w3.org/2000/svg">
<path fill-rule="evenodd" clip-rule="evenodd" d="M3.063 5.6822C3 6.0134 3 6.4112 3 7.205V13.55C3 16.9439 3 18.6413 4.0548 19.6952C5.1087 20.75 6.8061 20.75 10.2 20.75H13.8C17.1939 20.75 18.8913 20.75 19.9452 19.6952C21 18.6413 21 16.9439 21 13.55V11.5682C21 9.1994 21 8.0141 20.307 7.2446C20.2434 7.17357 20.1761 7.10597 20.1054 7.0421C19.3359 6.35 18.1506 6.35 15.7818 6.35H15.4452C14.4075 6.35 13.8882 6.35 13.404 6.2123C13.1383 6.13634 12.8822 6.03004 12.6408 5.8955C12.2016 5.6516 11.8344 5.2835 11.1 4.55L10.605 4.055C10.3584 3.8084 10.236 3.686 10.1064 3.578C9.549 3.11598 8.86524 2.83275 8.1444 2.7653C7.977 2.75 7.8024 2.75 7.455 2.75C6.6603 2.75 6.2634 2.75 5.9322 2.813C5.22106 2.9473 4.5669 3.29282 4.05508 3.80449C3.54325 4.31615 3.19752 4.9711 3.063 5.6822ZM12 11.075C12.179 11.075 12.3507 11.1461 12.4773 11.2727C12.6039 11.3993 12.675 11.571 12.675 11.75V12.875H13.8C13.979 12.875 14.1507 12.9461 14.2773 13.0727C14.4039 13.1993 14.475 13.371 14.475 13.55C14.475 13.729 14.4039 13.9007 14.2773 14.0273C14.1507 14.1539 13.979 14.225 13.8 14.225H12.675V15.35C12.675 15.529 12.6039 15.7007 12.4773 15.8273C12.3507 15.9539 12.179 16.025 12 16.025C11.821 16.025 11.6493 15.9539 11.5227 15.8273C11.3961 15.7007 11.325 15.529 11.325 15.35V14.225H10.2C10.021 14.225 9.84929 14.1539 9.7227 14.0273C9.59612 13.9007 9.525 13.729 9.525 13.55C9.525 13.371 9.59612 13.1993 9.7227 13.0727C9.84929 12.9461 10.021 12.875 10.2 12.875H11.325V11.75C11.325 11.571 11.3961 11.3993 11.5227 11.2727C11.6493 11.1461 11.821 11.075 12 11.075Z" fill="#46535C"/>
</svg>
