<svg width="190" height="177" viewBox="0 0 190 177" fill="none" xmlns="http://www.w3.org/2000/svg">
<g clip-path="url(#clip0_1166_9261)">
<path d="M126.359 285.93C196.146 285.93 252.719 218.477 252.719 135.27C252.719 52.0628 196.146 -15.39 126.359 -15.39C56.5723 -15.39 -0.000976562 52.0628 -0.000976562 135.27C-0.000976562 218.477 56.5723 285.93 126.359 285.93Z" fill="white" fill-opacity="0.1"/>
<path d="M161.686 306.18C231.473 306.18 288.046 238.727 288.046 155.52C288.046 72.3128 231.473 4.86005 161.686 4.86005C91.8995 4.86005 35.3262 72.3128 35.3262 155.52C35.3262 238.727 91.8995 306.18 161.686 306.18Z" fill="white" fill-opacity="0.2"/>
<path d="M196.333 340.2C266.119 340.2 322.693 272.747 322.693 189.54C322.693 106.333 266.119 38.8801 196.333 38.8801C126.546 38.8801 69.9727 106.333 69.9727 189.54C69.9727 272.747 126.546 340.2 196.333 340.2Z" fill="white" fill-opacity="0.4"/>
</g>
<defs>
<clipPath id="clip0_1166_9261">
<rect width="189.54" height="176.58" fill="white"/>
</clipPath>
</defs>
</svg>
