<svg width="96" height="96" viewBox="0 0 96 96" fill="none" xmlns="http://www.w3.org/2000/svg">
<path d="M22 4C18.6863 4 16 6.68629 16 10V86C16 89.3137 18.6863 92 22 92H74C77.3137 92 80 89.3137 80 86V28L56 4H22Z" fill="#F4B70A"/>
<path d="M22 92C18.6863 92 16 89.3137 16 86V85C16 88.3137 18.6863 91 22 91H74C77.3137 91 80 88.3137 80 85V86C80 89.3137 77.3137 92 74 92H22Z" fill="#EFA904"/>
<path d="M22 4C18.6863 4 16 6.68629 16 10V11C16 7.68629 18.6863 5 22 5H57L56 4H22Z" fill="#F6C028"/>
<path d="M80 48.5V28L76.5 24.5H59.6213C58.285 24.5 57.6157 26.1157 58.5607 27.0607L80 48.5Z" fill="url(#paint0_linear_3_192)"/>
<path d="M56 4L80 28H62C58.6863 28 56 25.3137 56 22V4Z" fill="#FADC87"/>
<path fill-rule="evenodd" clip-rule="evenodd" d="M34 44C32.8954 44 32 44.8954 32 46V74C32 75.1046 32.8954 76 34 76H62C63.1046 76 64 75.1046 64 74V46C64 44.8954 63.1046 44 62 44H34ZM60 53H36V67H60V53Z" fill="white"/>
<defs>
<linearGradient id="paint0_linear_3_192" x1="69.0592" y1="48.5" x2="69.0592" y2="24" gradientUnits="userSpaceOnUse">
<stop stop-color="#F4B70A"/>
<stop offset="1" stop-color="#E2930A"/>
</linearGradient>
</defs>
</svg>
