<svg width="29" height="29" viewBox="0 0 29 29" fill="none" xmlns="http://www.w3.org/2000/svg">
<path d="M24.7092 8.20246C24.6857 8.20246 24.6505 8.20246 24.6153 8.20246C18.4076 7.58051 12.2116 7.34581 6.07425 7.96776L3.68034 8.20246C3.18748 8.2494 2.75329 7.89735 2.70635 7.40449C2.65941 6.91163 3.01145 6.48917 3.49258 6.44223L5.88649 6.20753C12.1294 5.57385 18.4545 5.82028 24.7913 6.44223C25.2725 6.48917 25.6245 6.92336 25.5776 7.40449C25.5424 7.86215 25.1551 8.20246 24.7092 8.20246Z" fill="#595959"/>
<path d="M10.0402 7.01733C9.99322 7.01733 9.94629 7.01733 9.88761 7.00559C9.41822 6.92345 9.08964 6.46579 9.17179 5.9964L9.42995 4.45913C9.61771 3.33259 9.87588 1.77185 12.6101 1.77185H15.6846C18.4306 1.77185 18.6887 3.39126 18.8648 4.47087L19.1229 5.9964C19.2051 6.47753 18.8765 6.93518 18.4071 7.00559C17.926 7.08774 17.4683 6.75916 17.3979 6.28977L17.1397 4.76424C16.9755 3.74331 16.9403 3.54381 15.6964 3.54381H12.6218C11.3779 3.54381 11.3545 3.7081 11.1784 4.7525L10.9085 6.27803C10.8381 6.71222 10.4626 7.01733 10.0402 7.01733Z" fill="#595959"/>
<path d="M17.9142 27.0016H10.3804C6.28499 27.0016 6.1207 24.7368 5.99162 22.9061L5.22885 11.0892C5.19365 10.608 5.56916 10.1856 6.05029 10.1504C6.54315 10.1269 6.95387 10.4907 6.98908 10.9718L7.75184 22.7888C7.88093 24.5725 7.92787 25.2414 10.3804 25.2414H17.9142C20.3785 25.2414 20.4255 24.5725 20.5428 22.7888L21.3056 10.9718C21.3408 10.4907 21.7633 10.1269 22.2444 10.1504C22.7255 10.1856 23.101 10.5963 23.0658 11.0892L22.3031 22.9061C22.174 24.7368 22.0097 27.0016 17.9142 27.0016Z" fill="#595959"/>
<path d="M16.0954 20.5475H12.1877C11.7066 20.5475 11.3076 20.1485 11.3076 19.6673C11.3076 19.1862 11.7066 18.7872 12.1877 18.7872H16.0954C16.5766 18.7872 16.9755 19.1862 16.9755 19.6673C16.9755 20.1485 16.5766 20.5475 16.0954 20.5475Z" fill="#595959"/>
<path d="M17.0805 15.8536H11.2131C10.732 15.8536 10.333 15.4546 10.333 14.9735C10.333 14.4924 10.732 14.0934 11.2131 14.0934H17.0805C17.5617 14.0934 17.9607 14.4924 17.9607 14.9735C17.9607 15.4546 17.5617 15.8536 17.0805 15.8536Z" fill="#595959"/>
</svg>
