<svg width="294" height="246" viewBox="0 0 294 246" fill="none" xmlns="http://www.w3.org/2000/svg">
<path fill-rule="evenodd" clip-rule="evenodd" d="M167.385 105.569L182.384 208.383L183.731 218.698C184.165 222.021 181.651 225.045 178.116 225.453L83.6924 236.35C80.1569 236.758 76.9389 234.395 76.5048 231.072L61.9677 119.794C61.7507 118.133 63.0077 116.62 64.7755 116.416C64.7867 116.415 64.7978 116.414 64.809 116.413L72.6427 115.587" fill="white"/>
<path d="M167.385 105.569L182.384 208.383L183.731 218.698C184.165 222.021 181.651 225.045 178.116 225.453L83.6924 236.35C80.1569 236.758 76.9389 234.395 76.5048 231.072L61.9677 119.794C61.7507 118.133 63.0077 116.62 64.7755 116.416C64.7867 116.415 64.7978 116.414 64.809 116.413L72.6427 115.587" stroke="#0071C5" stroke-width="3.3189" stroke-linecap="round"/>
<path fill-rule="evenodd" clip-rule="evenodd" d="M78.9763 114.917L86.3725 114.138L78.9763 114.917Z" fill="white"/>
<path d="M78.9763 114.917L86.3725 114.138" stroke="#C4E6FF" stroke-width="3.3189" stroke-linecap="round"/>
<path fill-rule="evenodd" clip-rule="evenodd" d="M163.305 112.037L176.881 205.214L178.102 214.562C178.495 217.573 176.247 220.31 173.081 220.676L88.5232 230.434C85.3571 230.799 82.4715 228.654 82.0781 225.643L68.8879 124.675C68.6979 123.221 69.7248 121.906 71.1816 121.738L82.2054 120.466" fill="#B1DEFF"/>
<path d="M93.2622 89.6611C93.2622 87.6448 94.8967 86.0103 96.913 86.0103H172.076C173.005 86.0103 173.899 86.3642 174.576 87.0001L196.824 107.898C197.558 108.588 197.975 109.551 197.975 110.559V206.341C197.975 208.357 196.34 209.992 194.324 209.992H96.913C94.8967 209.992 93.2622 208.357 93.2622 206.341V89.6611Z" fill="white" stroke="#0071C5" stroke-width="3.3189"/>
<path d="M172.223 87.9916V105.567C172.223 108.078 174.389 110.113 177.061 110.113H189.853" stroke="#0071C5" stroke-width="3.3189" stroke-linecap="round" stroke-linejoin="round"/>
<path d="M109.868 187.403H151.791M109.868 110.114H151.791H109.868ZM109.868 128.3H179.202H109.868ZM109.868 148.001H179.202H109.868ZM109.868 167.702H179.202H109.868Z" stroke="#0881C4" stroke-width="3.3189" stroke-linecap="round" stroke-linejoin="round"/>
<path d="M171.225 44.0534C172.932 44.0832 174.507 43.1976 175.286 41.7709C176.065 40.3442 175.911 38.6254 174.89 37.3409L146.343 2.60809C145.495 1.59298 144.198 1.00006 142.825 1.00006C141.451 1.00006 140.154 1.59298 139.307 2.60809L110.76 37.3409C109.738 38.6254 109.584 40.3442 110.363 41.7709C111.142 43.1976 112.718 44.0832 114.424 44.0534H125.418V63.3303C125.418 67.912 129.372 71.6262 134.249 71.6262H151.546C156.424 71.6262 160.378 67.912 160.378 63.3303V44.0534H171.225Z" fill="#B1DEFF" stroke="#004D87" stroke-width="1.99134"/>
<path d="M248.435 193.201V189.244" stroke="#004D87" stroke-width="3.01718" stroke-linecap="round" stroke-linejoin="round"/>
<path d="M257.017 196.66L259.917 193.883" stroke="#004D87" stroke-width="3.01718" stroke-linecap="round" stroke-linejoin="round"/>
<path d="M260.585 204.994H264.661" stroke="#004D87" stroke-width="3.01718" stroke-linecap="round" stroke-linejoin="round"/>
<path d="M257.017 213.365L259.917 216.142" stroke="#004D87" stroke-width="3.01718" stroke-linecap="round" stroke-linejoin="round"/>
<path d="M248.435 216.825V220.744" stroke="#004D87" stroke-width="3.01718" stroke-linecap="round" stroke-linejoin="round"/>
<path d="M239.811 213.365L236.95 216.142" stroke="#004D87" stroke-width="3.01718" stroke-linecap="round" stroke-linejoin="round"/>
<path d="M236.244 204.994H232.207" stroke="#004D87" stroke-width="3.01718" stroke-linecap="round" stroke-linejoin="round"/>
<path d="M239.811 196.66L236.95 193.883" stroke="#004D87" stroke-width="3.01718" stroke-linecap="round" stroke-linejoin="round"/>
<path d="M221.386 94.7415V84.2413" stroke="#004D87" stroke-width="3.01718" stroke-linecap="round" stroke-linejoin="round"/>
<path d="M215.982 89.4922H226.8" stroke="#004D87" stroke-width="3.01718" stroke-linecap="round" stroke-linejoin="round"/>
<path d="M72.6443 94.743V73.7426" stroke="#004D87" stroke-width="3.01718" stroke-linecap="round" stroke-linejoin="round"/>
<path d="M61.8298 84.2413H83.465" stroke="#004D87" stroke-width="3.01718" stroke-linecap="round" stroke-linejoin="round"/>
<path d="M37.8831 207.618V197.118" stroke="#004D87" stroke-width="3.01718" stroke-linecap="round" stroke-linejoin="round"/>
<path d="M32.4727 202.369H43.2902" stroke="#004D87" stroke-width="3.01718" stroke-linecap="round" stroke-linejoin="round"/>
<path d="M143.309 147.321C143.563 144.952 145.691 143.229 148.061 143.473L220.572 150.944C222.942 151.188 224.658 153.307 224.404 155.676L216.704 227.486C216.45 229.855 214.323 231.578 211.952 231.334L139.441 223.863C137.071 223.619 135.356 221.5 135.61 219.131L143.309 147.321Z" fill="white" stroke="#0071C5" stroke-width="1.99134"/>
<path fill-rule="evenodd" clip-rule="evenodd" d="M150.154 155.208C150.389 153.021 152.352 151.431 154.54 151.656L212.504 157.628C214.692 157.853 216.276 159.809 216.041 161.996L210.969 209.301C210.735 211.488 208.771 213.079 206.583 212.853L148.619 206.881C146.431 206.656 144.847 204.7 145.082 202.513L150.154 155.208Z" fill="white"/>
<path fill-rule="evenodd" clip-rule="evenodd" d="M153.204 192.29L161.61 186.732C163.765 185.307 166.625 185.63 168.394 187.497L174.235 193.661C174.708 194.16 175.485 194.213 176.025 193.784L189.269 183.265C191.714 181.323 195.291 181.886 197.004 184.482L205.723 197.701L207.099 199.952L206.474 207.203C206.41 207.947 205.744 208.495 205.001 208.414L151.043 202.537C150.324 202.459 149.802 201.82 149.87 201.099L150.559 193.76L153.204 192.29Z" fill="#C4E6FF"/>
<path d="M151.144 155.31C151.32 153.67 152.793 152.477 154.434 152.646L212.398 158.618C214.039 158.787 215.227 160.254 215.051 161.894L209.979 209.199C209.803 210.84 208.33 212.032 206.689 211.863L148.725 205.891C147.084 205.722 145.896 204.256 146.072 202.615L151.144 155.31Z" stroke="#0071C5" stroke-width="1.99134"/>
<ellipse cx="5.75967" cy="5.64831" rx="5.75967" ry="5.64831" transform="matrix(0.994735 0.102485 -0.106612 0.994301 159.875 163.564)" fill="#C4E6FF" stroke="#0071C5" stroke-width="1.99134"/>
<path d="M151.271 193.747C155.05 191.188 162.609 186.071 162.609 186.071C164.178 185.034 166.283 185.271 167.571 186.63L174.458 193.899C174.802 194.262 175.374 194.301 175.766 193.99L190.495 182.291C192.143 180.982 194.561 181.231 195.897 182.846C195.983 182.95 196.064 183.059 196.138 183.172C196.138 183.172 204.749 196.566 206.761 199.695" stroke="#0071C5" stroke-width="1.99134" stroke-linecap="round"/>
</svg>
